<?xml version="1.0" encoding="UTF-8"?>
<svg width="400" height="300" viewBox="0 0 400 300" xmlns="http://www.w3.org/2000/svg">
  <!-- Desktop -->
  <rect x="50" y="30" width="300" height="180" rx="8" fill="#4CAF50" />
  <rect x="60" y="40" width="280" height="150" rx="4" fill="#fff" />
  
  <!-- Tablet -->
  <rect x="100" y="130" width="140" height="100" rx="8" fill="#2196F3" />
  <rect x="110" y="140" width="120" height="80" rx="4" fill="#fff" />
  
  <!-- Phone -->
  <rect x="260" y="160" width="60" height="100" rx="8" fill="#FF5722" />
  <rect x="265" y="170" width="50" height="80" rx="4" fill="#fff" />
  
  <!-- Responsive Lines -->
  <path d="M80 60 L360 60 M80 80 L360 80 M80 100 L360 100" stroke="#E0E0E0" stroke-width="4"/>
  <path d="M120 160 L220 160 M120 180 L220 180" stroke="#E0E0E0" stroke-width="4"/>
  <path d="M275 190 L305 190 M275 210 L305 210" stroke="#E0E0E0" stroke-width="4"/>
</svg> 